<?xml version="1.0" encoding="UTF-8"?>
<!DOCTYPE svg PUBLIC "-//W3C//DTD SVG 1.1//EN" "http://www.w3.org/Graphics/SVG/1.1/DTD/svg11.dtd">
<svg xmlns="http://www.w3.org/2000/svg" version="1.1" width="600px" height="600px" style="shape-rendering:geometricPrecision; text-rendering:geometricPrecision; image-rendering:optimizeQuality; fill-rule:evenodd; clip-rule:evenodd" xmlns:xlink="http://www.w3.org/1999/xlink">
<g><path style="opacity:0.977" fill="#ac08f8" d="M 328.5,119.5 C 328.5,120.5 328.5,121.5 328.5,122.5C 326.473,122.338 324.473,122.505 322.5,123C 323.167,123.333 323.833,123.667 324.5,124C 319.075,124.965 314.242,127.131 310,130.5C 309.667,129.833 309.333,129.167 309,128.5C 307.902,129.967 306.402,130.801 304.5,131C 305.167,131.333 305.833,131.667 306.5,132C 302.5,133 298.5,134 294.5,135C 295.167,135.333 295.833,135.667 296.5,136C 292.5,137 288.5,138 284.5,139C 285.167,139.333 285.833,139.667 286.5,140C 281.075,140.965 276.242,143.131 272,146.5C 271.667,145.833 271.333,145.167 271,144.5C 269.902,145.967 268.402,146.801 266.5,147C 267.167,147.333 267.833,147.667 268.5,148C 260.415,149.552 253.748,151.719 248.5,154.5C 253.369,133.532 266.702,122.699 288.5,122C 301.758,119.996 315.092,119.163 328.5,119.5 Z"/></g>
<g><path style="opacity:0.989" fill="#b00df5" d="M 328.5,119.5 C 340.567,118.677 352.234,120.01 363.5,123.5C 361.737,124.63 359.904,124.63 358,123.5C 354.413,126.444 350.247,127.944 345.5,128C 346.167,128.333 346.833,128.667 347.5,129C 345.5,129.333 343.5,129.667 341.5,130C 342.167,130.333 342.833,130.667 343.5,131C 340.833,131.333 338.167,131.667 335.5,132C 336.167,132.333 336.833,132.667 337.5,133C 329.5,136 321.5,139 313.5,142C 314.167,142.333 314.833,142.667 315.5,143C 312.833,143.333 310.167,143.667 307.5,144C 308.167,144.333 308.833,144.667 309.5,145C 307.5,145.333 305.5,145.667 303.5,146C 304.167,146.333 304.833,146.667 305.5,147C 302.833,147.333 300.167,147.667 297.5,148C 298.167,148.333 298.833,148.667 299.5,149C 291.5,152 283.5,155 275.5,158C 276.167,158.333 276.833,158.667 277.5,159C 274.833,159.333 272.167,159.667 269.5,160C 270.167,160.333 270.833,160.667 271.5,161C 269.5,161.333 267.5,161.667 265.5,162C 266.167,162.333 266.833,162.667 267.5,163C 264.833,163.333 262.167,163.667 259.5,164C 260.167,164.333 260.833,164.667 261.5,165C 256.248,166.41 251.415,168.576 247,171.5C 246.536,170.906 246.369,170.239 246.5,169.5C 246.431,164.387 247.097,159.387 248.5,154.5C 253.748,151.719 260.415,149.552 268.5,148C 267.833,147.667 267.167,147.333 266.5,147C 268.402,146.801 269.902,145.967 271,144.5C 271.333,145.167 271.667,145.833 272,146.5C 276.242,143.131 281.075,140.965 286.5,140C 285.833,139.667 285.167,139.333 284.5,139C 288.5,138 292.5,137 296.5,136C 295.833,135.667 295.167,135.333 294.5,135C 298.5,134 302.5,133 306.5,132C 305.833,131.667 305.167,131.333 304.5,131C 306.402,130.801 307.902,129.967 309,128.5C 309.333,129.167 309.667,129.833 310,130.5C 314.242,127.131 319.075,124.965 324.5,124C 323.833,123.667 323.167,123.333 322.5,123C 324.473,122.505 326.473,122.338 328.5,122.5C 328.5,121.5 328.5,120.5 328.5,119.5 Z"/></g>
<g><path style="opacity:0.989" fill="#b410f2" d="M 363.5,123.5 C 365.216,123.629 366.883,123.962 368.5,124.5C 368.423,125.75 367.756,126.583 366.5,127C 367.973,127.71 368.64,128.876 368.5,130.5C 366.473,130.338 364.473,130.505 362.5,131C 363.167,131.333 363.833,131.667 364.5,132C 361.042,132.597 357.709,133.597 354.5,135C 355.167,135.333 355.833,135.667 356.5,136C 349.167,138.333 341.833,140.667 334.5,143C 335.167,143.333 335.833,143.667 336.5,144C 331.075,144.965 326.242,147.131 322,150.5C 321.667,149.833 321.333,149.167 321,148.5C 319.902,149.967 318.402,150.801 316.5,151C 317.167,151.333 317.833,151.667 318.5,152C 311.167,154.333 303.833,156.667 296.5,159C 297.167,159.333 297.833,159.667 298.5,160C 296.598,160.199 295.098,161.033 294,162.5C 293.667,161.833 293.333,161.167 293,160.5C 291.214,162.099 289.047,162.933 286.5,163C 287.167,163.333 287.833,163.667 288.5,164C 286.5,164.333 284.5,164.667 282.5,165C 283.167,165.333 283.833,165.667 284.5,166C 282.5,166.333 280.5,166.667 278.5,167C 279.167,167.333 279.833,167.667 280.5,168C 276.5,169 272.5,170 268.5,171C 269.167,171.333 269.833,171.667 270.5,172C 266.5,173 262.5,174 258.5,175C 259.167,175.333 259.833,175.667 260.5,176C 255.046,177.564 249.712,179.398 244.5,181.5C 244.851,177.316 245.518,173.316 246.5,169.5C 246.369,170.239 246.536,170.906 247,171.5C 251.415,168.576 256.248,166.41 261.5,165C 260.833,164.667 260.167,164.333 259.5,164C 262.167,163.667 264.833,163.333 267.5,163C 266.833,162.667 266.167,162.333 265.5,162C 267.5,161.667 269.5,161.333 271.5,161C 270.833,160.667 270.167,160.333 269.5,160C 272.167,159.667 274.833,159.333 277.5,159C 276.833,158.667 276.167,158.333 275.5,158C 283.5,155 291.5,152 299.5,149C 298.833,148.667 298.167,148.333 297.5,148C 300.167,147.667 302.833,147.333 305.5,147C 304.833,146.667 304.167,146.333 303.5,146C 305.5,145.667 307.5,145.333 309.5,145C 308.833,144.667 308.167,144.333 307.5,144C 310.167,143.667 312.833,143.333 315.5,143C 314.833,142.667 314.167,142.333 313.5,142C 321.5,139 329.5,136 337.5,133C 336.833,132.667 336.167,132.333 335.5,132C 338.167,131.667 340.833,131.333 343.5,131C 342.833,130.667 342.167,130.333 341.5,130C 343.5,129.667 345.5,129.333 347.5,129C 346.833,128.667 346.167,128.333 345.5,128C 350.247,127.944 354.413,126.444 358,123.5C 359.904,124.63 361.737,124.63 363.5,123.5 Z"/></g>
<g><path style="opacity:0.985" fill="#ba16ed" d="M 368.5,124.5 C 383.211,128.679 394.878,137.012 403.5,149.5C 403.586,150.496 403.252,151.329 402.5,152C 400.598,152.199 399.098,153.033 398,154.5C 397.667,153.833 397.333,153.167 397,152.5C 395.902,153.967 394.402,154.801 392.5,155C 393.167,155.333 393.833,155.667 394.5,156C 387.167,158.333 379.833,160.667 372.5,163C 373.167,163.333 373.833,163.667 374.5,164C 369.075,164.965 364.242,167.131 360,170.5C 359.667,169.833 359.333,169.167 359,168.5C 356.886,170.3 354.386,171.3 351.5,171.5C 343.456,156.986 331.789,153.152 316.5,160C 308.987,164.521 305.987,171.021 307.5,179.5C 306.25,179.423 305.417,178.756 305,177.5C 302.931,178.264 300.764,178.764 298.5,179C 299.167,179.333 299.833,179.667 300.5,180C 296.5,181 292.5,182 288.5,183C 289.167,183.333 289.833,183.667 290.5,184C 286.5,185 282.5,186 278.5,187C 279.167,187.333 279.833,187.667 280.5,188C 276.5,189 272.5,190 268.5,191C 269.167,191.333 269.833,191.667 270.5,192C 268.598,192.199 267.098,193.033 266,194.5C 265.667,193.833 265.333,193.167 265,192.5C 260.758,195.869 255.925,198.035 250.5,199C 251.167,199.333 251.833,199.667 252.5,200C 250.19,200.497 247.857,200.663 245.5,200.5C 245.443,194.149 245.11,187.815 244.5,181.5C 249.712,179.398 255.046,177.564 260.5,176C 259.833,175.667 259.167,175.333 258.5,175C 262.5,174 266.5,173 270.5,172C 269.833,171.667 269.167,171.333 268.5,171C 272.5,170 276.5,169 280.5,168C 279.833,167.667 279.167,167.333 278.5,167C 280.5,166.667 282.5,166.333 284.5,166C 283.833,165.667 283.167,165.333 282.5,165C 284.5,164.667 286.5,164.333 288.5,164C 287.833,163.667 287.167,163.333 286.5,163C 289.047,162.933 291.214,162.099 293,160.5C 293.333,161.167 293.667,161.833 294,162.5C 295.098,161.033 296.598,160.199 298.5,160C 297.833,159.667 297.167,159.333 296.5,159C 303.833,156.667 311.167,154.333 318.5,152C 317.833,151.667 317.167,151.333 316.5,151C 318.402,150.801 319.902,149.967 321,148.5C 321.333,149.167 321.667,149.833 322,150.5C 326.242,147.131 331.075,144.965 336.5,144C 335.833,143.667 335.167,143.333 334.5,143C 341.833,140.667 349.167,138.333 356.5,136C 355.833,135.667 355.167,135.333 354.5,135C 357.709,133.597 361.042,132.597 364.5,132C 363.833,131.667 363.167,131.333 362.5,131C 364.473,130.505 366.473,130.338 368.5,130.5C 368.64,128.876 367.973,127.71 366.5,127C 367.756,126.583 368.423,125.75 368.5,124.5 Z"/></g>
<g><path style="opacity:0.984" fill="#c420e5" d="M 403.5,149.5 C 407.784,154.398 410.784,160.065 412.5,166.5C 408.123,168.54 403.456,170.04 398.5,171C 399.167,171.333 399.833,171.667 400.5,172C 398.598,172.199 397.098,173.033 396,174.5C 395.667,173.833 395.333,173.167 395,172.5C 390.758,175.869 385.925,178.035 380.5,179C 381.167,179.333 381.833,179.667 382.5,180C 378.5,181 374.5,182 370.5,183C 371.167,183.333 371.833,183.667 372.5,184C 368.5,185 364.5,186 360.5,187C 361.167,187.333 361.833,187.667 362.5,188C 360.598,188.199 359.098,189.033 358,190.5C 357.667,189.833 357.333,189.167 357,188.5C 351.242,191.984 345.909,194.984 341,197.5C 340.667,197.167 340.333,196.833 340,196.5C 335.282,199.671 329.448,201.838 322.5,203C 323.167,203.333 323.833,203.667 324.5,204C 322.598,204.199 321.098,205.033 320,206.5C 319.667,205.833 319.333,205.167 319,204.5C 314.758,207.869 309.925,210.035 304.5,211C 305.167,211.333 305.833,211.667 306.5,212C 299.167,214.333 291.833,216.667 284.5,219C 285.167,219.333 285.833,219.667 286.5,220C 284.598,220.199 283.098,221.033 282,222.5C 281.667,221.833 281.333,221.167 281,220.5C 276.758,223.869 271.925,226.035 266.5,227C 267.167,227.333 267.833,227.667 268.5,228C 261.334,229.436 255.668,231.269 251.5,233.5C 249.549,228.816 248.549,223.816 248.5,218.5C 251.397,214.547 255.397,212.38 260.5,212C 259.833,211.667 259.167,211.333 258.5,211C 262.5,210 266.5,209 270.5,208C 269.833,207.667 269.167,207.333 268.5,207C 270.402,206.801 271.902,205.967 273,204.5C 273.333,205.167 273.667,205.833 274,206.5C 277,204.5 280,202.5 283,200.5C 283.333,201.167 283.667,201.833 284,202.5C 288.242,199.131 293.075,196.965 298.5,196C 297.833,195.667 297.167,195.333 296.5,195C 300.5,194 304.5,193 308.5,192C 307.833,191.667 307.167,191.333 306.5,191C 308.056,190.28 309.056,189.113 309.5,187.5C 322.647,200.733 335.814,200.733 349,187.5C 352.082,182.453 352.915,177.119 351.5,171.5C 354.386,171.3 356.886,170.3 359,168.5C 359.333,169.167 359.667,169.833 360,170.5C 364.242,167.131 369.075,164.965 374.5,164C 373.833,163.667 373.167,163.333 372.5,163C 379.833,160.667 387.167,158.333 394.5,156C 393.833,155.667 393.167,155.333 392.5,155C 394.402,154.801 395.902,153.967 397,152.5C 397.333,153.167 397.667,153.833 398,154.5C 399.098,153.033 400.598,152.199 402.5,152C 403.252,151.329 403.586,150.496 403.5,149.5 Z"/></g>
<g><path style="opacity:0.995" fill="#c924e2" d="M 412.5,166.5 C 413.482,169.763 414.149,173.097 414.5,176.5C 409.025,181.237 402.692,184.404 395.5,186C 396.167,186.333 396.833,186.667 397.5,187C 394.833,187.333 392.167,187.667 389.5,188C 390.167,188.333 390.833,188.667 391.5,189C 389.5,189.333 387.5,189.667 385.5,190C 386.167,190.333 386.833,190.667 387.5,191C 382.069,191.115 378.069,192.115 375.5,194C 376.167,194.333 376.833,194.667 377.5,195C 374.833,195.333 372.167,195.667 369.5,196C 370.167,196.333 370.833,196.667 371.5,197C 366.833,198.667 362.167,200.333 357.5,202C 358.167,202.333 358.833,202.667 359.5,203C 356.833,203.333 354.167,203.667 351.5,204C 352.167,204.333 352.833,204.667 353.5,205C 351.5,205.333 349.5,205.667 347.5,206C 348.167,206.333 348.833,206.667 349.5,207C 344.069,207.115 340.069,208.115 337.5,210C 338.167,210.333 338.833,210.667 339.5,211C 336.833,211.333 334.167,211.667 331.5,212C 332.167,212.333 332.833,212.667 333.5,213C 328.833,214.667 324.167,216.333 319.5,218C 320.167,218.333 320.833,218.667 321.5,219C 318.833,219.333 316.167,219.667 313.5,220C 314.167,220.333 314.833,220.667 315.5,221C 313.5,221.333 311.5,221.667 309.5,222C 310.167,222.333 310.833,222.667 311.5,223C 306.069,223.115 302.069,224.115 299.5,226C 300.167,226.333 300.833,226.667 301.5,227C 298.833,227.333 296.167,227.667 293.5,228C 294.167,228.333 294.833,228.667 295.5,229C 290.833,230.667 286.167,232.333 281.5,234C 282.167,234.333 282.833,234.667 283.5,235C 280.833,235.333 278.167,235.667 275.5,236C 276.167,236.333 276.833,236.667 277.5,237C 273.665,238.626 269.665,239.626 265.5,240C 266.167,240.333 266.833,240.667 267.5,241C 265.5,241.333 263.5,241.667 261.5,242C 262.167,242.333 262.833,242.667 263.5,243C 260.833,243.333 258.167,243.667 255.5,244C 256.167,244.333 256.833,244.667 257.5,245C 256.692,246.706 255.359,247.539 253.5,247.5C 252.624,242.868 251.957,238.201 251.5,233.5C 255.668,231.269 261.334,229.436 268.5,228C 267.833,227.667 267.167,227.333 266.5,227C 271.925,226.035 276.758,223.869 281,220.5C 281.333,221.167 281.667,221.833 282,222.5C 283.098,221.033 284.598,220.199 286.5,220C 285.833,219.667 285.167,219.333 284.5,219C 291.833,216.667 299.167,214.333 306.5,212C 305.833,211.667 305.167,211.333 304.5,211C 309.925,210.035 314.758,207.869 319,204.5C 319.333,205.167 319.667,205.833 320,206.5C 321.098,205.033 322.598,204.199 324.5,204C 323.833,203.667 323.167,203.333 322.5,203C 329.448,201.838 335.282,199.671 340,196.5C 340.333,196.833 340.667,197.167 341,197.5C 345.909,194.984 351.242,191.984 357,188.5C 357.333,189.167 357.667,189.833 358,190.5C 359.098,189.033 360.598,188.199 362.5,188C 361.833,187.667 361.167,187.333 360.5,187C 364.5,186 368.5,185 372.5,184C 371.833,183.667 371.167,183.333 370.5,183C 374.5,182 378.5,181 382.5,180C 381.833,179.667 381.167,179.333 380.5,179C 385.925,178.035 390.758,175.869 395,172.5C 395.333,173.167 395.667,173.833 396,174.5C 397.098,173.033 398.598,172.199 400.5,172C 399.833,171.667 399.167,171.333 398.5,171C 403.456,170.04 408.123,168.54 412.5,166.5 Z"/></g>
<g><path style="opacity:0.985" fill="#bf1aea" d="M 307.5,179.5 C 307.584,182.327 308.25,184.994 309.5,187.5C 309.056,189.113 308.056,190.28 306.5,191C 307.167,191.333 307.833,191.667 308.5,192C 304.5,193 300.5,194 296.5,195C 297.167,195.333 297.833,195.667 298.5,196C 293.075,196.965 288.242,199.131 284,202.5C 283.667,201.833 283.333,201.167 283,200.5C 280,202.5 277,204.5 274,206.5C 273.667,205.833 273.333,205.167 273,204.5C 271.902,205.967 270.402,206.801 268.5,207C 269.167,207.333 269.833,207.667 270.5,208C 266.5,209 262.5,210 258.5,211C 259.167,211.333 259.833,211.667 260.5,212C 255.397,212.38 251.397,214.547 248.5,218.5C 247.241,212.634 246.241,206.634 245.5,200.5C 247.857,200.663 250.19,200.497 252.5,200C 251.833,199.667 251.167,199.333 250.5,199C 255.925,198.035 260.758,195.869 265,192.5C 265.333,193.167 265.667,193.833 266,194.5C 267.098,193.033 268.598,192.199 270.5,192C 269.833,191.667 269.167,191.333 268.5,191C 272.5,190 276.5,189 280.5,188C 279.833,187.667 279.167,187.333 278.5,187C 282.5,186 286.5,185 290.5,184C 289.833,183.667 289.167,183.333 288.5,183C 292.5,182 296.5,181 300.5,180C 299.833,179.667 299.167,179.333 298.5,179C 300.764,178.764 302.931,178.264 305,177.5C 305.417,178.756 306.25,179.423 307.5,179.5 Z"/></g>
<g><path style="opacity:0.994" fill="#cc27df" d="M 414.5,176.5 C 414.533,180.869 414.2,185.202 413.5,189.5C 411.914,190.413 410.414,190.413 409,189.5C 407.601,190.227 406.101,190.727 404.5,191C 405.167,191.333 405.833,191.667 406.5,192C 402.5,193 398.5,194 394.5,195C 395.167,195.333 395.833,195.667 396.5,196C 394.598,196.199 393.098,197.033 392,198.5C 391.667,197.833 391.333,197.167 391,196.5C 386.758,199.869 381.925,202.035 376.5,203C 377.167,203.333 377.833,203.667 378.5,204C 371.167,206.333 363.833,208.667 356.5,211C 357.167,211.333 357.833,211.667 358.5,212C 356.598,212.199 355.098,213.033 354,214.5C 353.667,213.833 353.333,213.167 353,212.5C 348.758,215.869 343.925,218.035 338.5,219C 339.167,219.333 339.833,219.667 340.5,220C 333.167,222.333 325.833,224.667 318.5,227C 319.167,227.333 319.833,227.667 320.5,228C 318.598,228.199 317.098,229.033 316,230.5C 315.667,229.833 315.333,229.167 315,228.5C 310.758,231.869 305.925,234.035 300.5,235C 301.167,235.333 301.833,235.667 302.5,236C 298.5,237 294.5,238 290.5,239C 291.167,239.333 291.833,239.667 292.5,240C 288.5,241 284.5,242 280.5,243C 281.167,243.333 281.833,243.667 282.5,244C 280.598,244.199 279.098,245.033 278,246.5C 277.667,245.833 277.333,245.167 277,244.5C 272.758,247.869 267.925,250.035 262.5,251C 263.167,251.333 263.833,251.667 264.5,252C 261.018,252.682 258.018,253.515 255.5,254.5C 255.233,252.035 254.566,249.701 253.5,247.5C 255.359,247.539 256.692,246.706 257.5,245C 256.833,244.667 256.167,244.333 255.5,244C 258.167,243.667 260.833,243.333 263.5,243C 262.833,242.667 262.167,242.333 261.5,242C 263.5,241.667 265.5,241.333 267.5,241C 266.833,240.667 266.167,240.333 265.5,240C 269.665,239.626 273.665,238.626 277.5,237C 276.833,236.667 276.167,236.333 275.5,236C 278.167,235.667 280.833,235.333 283.5,235C 282.833,234.667 282.167,234.333 281.5,234C 286.167,232.333 290.833,230.667 295.5,229C 294.833,228.667 294.167,228.333 293.5,228C 296.167,227.667 298.833,227.333 301.5,227C 300.833,226.667 300.167,226.333 299.5,226C 302.069,224.115 306.069,223.115 311.5,223C 310.833,222.667 310.167,222.333 309.5,222C 311.5,221.667 313.5,221.333 315.5,221C 314.833,220.667 314.167,220.333 313.5,220C 316.167,219.667 318.833,219.333 321.5,219C 320.833,218.667 320.167,218.333 319.5,218C 324.167,216.333 328.833,214.667 333.5,213C 332.833,212.667 332.167,212.333 331.5,212C 334.167,211.667 336.833,211.333 339.5,211C 338.833,210.667 338.167,210.333 337.5,210C 340.069,208.115 344.069,207.115 349.5,207C 348.833,206.667 348.167,206.333 347.5,206C 349.5,205.667 351.5,205.333 353.5,205C 352.833,204.667 352.167,204.333 351.5,204C 354.167,203.667 356.833,203.333 359.5,203C 358.833,202.667 358.167,202.333 357.5,202C 362.167,200.333 366.833,198.667 371.5,197C 370.833,196.667 370.167,196.333 369.5,196C 372.167,195.667 374.833,195.333 377.5,195C 376.833,194.667 376.167,194.333 375.5,194C 378.069,192.115 382.069,191.115 387.5,191C 386.833,190.667 386.167,190.333 385.5,190C 387.5,189.667 389.5,189.333 391.5,189C 390.833,188.667 390.167,188.333 389.5,188C 392.167,187.667 394.833,187.333 397.5,187C 396.833,186.667 396.167,186.333 395.5,186C 402.692,184.404 409.025,181.237 414.5,176.5 Z"/></g>
<g><path style="opacity:0.996" fill="#cf2add" d="M 413.5,189.5 C 412.869,192.702 411.869,195.702 410.5,198.5C 409.883,198.389 409.383,198.056 409,197.5C 406.931,198.264 404.764,198.764 402.5,199C 403.167,199.333 403.833,199.667 404.5,200C 401.291,201.403 397.958,202.403 394.5,203C 395.167,203.333 395.833,203.667 396.5,204C 392.5,205 388.5,206 384.5,207C 385.167,207.333 385.833,207.667 386.5,208C 382.5,209 378.5,210 374.5,211C 375.167,211.333 375.833,211.667 376.5,212C 373.042,212.597 369.709,213.597 366.5,215C 367.167,215.333 367.833,215.667 368.5,216C 365.953,216.067 363.786,216.901 362,218.5C 361.667,217.833 361.333,217.167 361,216.5C 356.758,219.869 351.925,222.035 346.5,223C 347.167,223.333 347.833,223.667 348.5,224C 341.167,226.333 333.833,228.667 326.5,231C 327.167,231.333 327.833,231.667 328.5,232C 325.291,233.403 321.958,234.403 318.5,235C 319.167,235.333 319.833,235.667 320.5,236C 317.953,236.067 315.786,236.901 314,238.5C 313.667,237.833 313.333,237.167 313,236.5C 311.902,237.967 310.402,238.801 308.5,239C 309.167,239.333 309.833,239.667 310.5,240C 306.5,241 302.5,242 298.5,243C 299.167,243.333 299.833,243.667 300.5,244C 297.042,244.597 293.709,245.597 290.5,247C 291.167,247.333 291.833,247.667 292.5,248C 289.953,248.067 287.786,248.901 286,250.5C 285.667,249.833 285.333,249.167 285,248.5C 280.758,251.869 275.925,254.035 270.5,255C 271.167,255.333 271.833,255.667 272.5,256C 268.5,257 264.5,258 260.5,259C 261.167,259.333 261.833,259.667 262.5,260C 260.497,260.335 258.83,261.168 257.5,262.5C 256.226,260.007 255.56,257.341 255.5,254.5C 258.018,253.515 261.018,252.682 264.5,252C 263.833,251.667 263.167,251.333 262.5,251C 267.925,250.035 272.758,247.869 277,244.5C 277.333,245.167 277.667,245.833 278,246.5C 279.098,245.033 280.598,244.199 282.5,244C 281.833,243.667 281.167,243.333 280.5,243C 284.5,242 288.5,241 292.5,240C 291.833,239.667 291.167,239.333 290.5,239C 294.5,238 298.5,237 302.5,236C 301.833,235.667 301.167,235.333 300.5,235C 305.925,234.035 310.758,231.869 315,228.5C 315.333,229.167 315.667,229.833 316,230.5C 317.098,229.033 318.598,228.199 320.5,228C 319.833,227.667 319.167,227.333 318.5,227C 325.833,224.667 333.167,222.333 340.5,220C 339.833,219.667 339.167,219.333 338.5,219C 343.925,218.035 348.758,215.869 353,212.5C 353.333,213.167 353.667,213.833 354,214.5C 355.098,213.033 356.598,212.199 358.5,212C 357.833,211.667 357.167,211.333 356.5,211C 363.833,208.667 371.167,206.333 378.5,204C 377.833,203.667 377.167,203.333 376.5,203C 381.925,202.035 386.758,199.869 391,196.5C 391.333,197.167 391.667,197.833 392,198.5C 393.098,197.033 394.598,196.199 396.5,196C 395.833,195.667 395.167,195.333 394.5,195C 398.5,194 402.5,193 406.5,192C 405.833,191.667 405.167,191.333 404.5,191C 406.101,190.727 407.601,190.227 409,189.5C 410.414,190.413 411.914,190.413 413.5,189.5 Z"/></g>
<g><path style="opacity:0.993" fill="#d22ddb" d="M 410.5,198.5 C 409.067,205.365 406.067,211.365 401.5,216.5C 401.423,215.25 400.756,214.417 399.5,214C 401.595,213.444 401.762,212.944 400,212.5C 397.708,213.931 395.208,214.764 392.5,215C 393.167,215.333 393.833,215.667 394.5,216C 392.598,216.199 391.098,217.033 390,218.5C 389.667,217.833 389.333,217.167 389,216.5C 384.758,219.869 379.925,222.035 374.5,223C 375.167,223.333 375.833,223.667 376.5,224C 369.167,226.333 361.833,228.667 354.5,231C 355.167,231.333 355.833,231.667 356.5,232C 354.598,232.199 353.098,233.033 352,234.5C 351.667,233.833 351.333,233.167 351,232.5C 346.758,235.869 341.925,238.035 336.5,239C 337.167,239.333 337.833,239.667 338.5,240C 331.167,242.333 323.833,244.667 316.5,247C 317.167,247.333 317.833,247.667 318.5,248C 316.598,248.199 315.098,249.033 314,250.5C 313.667,249.833 313.333,249.167 313,248.5C 308.758,251.869 303.925,254.035 298.5,255C 299.167,255.333 299.833,255.667 300.5,256C 293.167,258.333 285.833,260.667 278.5,263C 279.167,263.333 279.833,263.667 280.5,264C 278.598,264.199 277.098,265.033 276,266.5C 275.667,265.833 275.333,265.167 275,264.5C 272,266.5 269,268.5 266,270.5C 265.667,269.833 265.333,269.167 265,268.5C 263.902,269.967 262.402,270.801 260.5,271C 261.167,271.333 261.833,271.667 262.5,272C 261.309,272.698 260.309,273.531 259.5,274.5C 258.196,270.64 257.529,266.64 257.5,262.5C 258.83,261.168 260.497,260.335 262.5,260C 261.833,259.667 261.167,259.333 260.5,259C 264.5,258 268.5,257 272.5,256C 271.833,255.667 271.167,255.333 270.5,255C 275.925,254.035 280.758,251.869 285,248.5C 285.333,249.167 285.667,249.833 286,250.5C 287.786,248.901 289.953,248.067 292.5,248C 291.833,247.667 291.167,247.333 290.5,247C 293.709,245.597 297.042,244.597 300.5,244C 299.833,243.667 299.167,243.333 298.5,243C 302.5,242 306.5,241 310.5,240C 309.833,239.667 309.167,239.333 308.5,239C 310.402,238.801 311.902,237.967 313,236.5C 313.333,237.167 313.667,237.833 314,238.5C 315.786,236.901 317.953,236.067 320.5,236C 319.833,235.667 319.167,235.333 318.5,235C 321.958,234.403 325.291,233.403 328.5,232C 327.833,231.667 327.167,231.333 326.5,231C 333.833,228.667 341.167,226.333 348.5,224C 347.833,223.667 347.167,223.333 346.5,223C 351.925,222.035 356.758,219.869 361,216.5C 361.333,217.167 361.667,217.833 362,218.5C 363.786,216.901 365.953,216.067 368.5,216C 367.833,215.667 367.167,215.333 366.5,215C 369.709,213.597 373.042,212.597 376.5,212C 375.833,211.667 375.167,211.333 374.5,211C 378.5,210 382.5,209 386.5,208C 385.833,207.667 385.167,207.333 384.5,207C 388.5,206 392.5,205 396.5,204C 395.833,203.667 395.167,203.333 394.5,203C 397.958,202.403 401.291,201.403 404.5,200C 403.833,199.667 403.167,199.333 402.5,199C 404.764,198.764 406.931,198.264 409,197.5C 409.383,198.056 409.883,198.389 410.5,198.5 Z"/></g>
<g><path style="opacity:0.992" fill="#d630d8" d="M 401.5,216.5 C 397.973,220.939 393.973,224.939 389.5,228.5C 389.53,227.503 389.03,226.836 388,226.5C 386.696,227.905 384.696,229.238 382,230.5C 381.667,229.833 381.333,229.167 381,228.5C 379.902,229.967 378.402,230.801 376.5,231C 377.167,231.333 377.833,231.667 378.5,232C 371.167,234.333 363.833,236.667 356.5,239C 357.167,239.333 357.833,239.667 358.5,240C 356.598,240.199 355.098,241.033 354,242.5C 353.667,241.833 353.333,241.167 353,240.5C 351.214,242.099 349.047,242.933 346.5,243C 347.167,243.333 347.833,243.667 348.5,244C 345.167,245 341.833,246 338.5,247C 339.167,247.333 339.833,247.667 340.5,248C 333.167,250.333 325.833,252.667 318.5,255C 319.167,255.333 319.833,255.667 320.5,256C 315.075,256.965 310.242,259.131 306,262.5C 305.667,261.833 305.333,261.167 305,260.5C 303.902,261.967 302.402,262.801 300.5,263C 301.167,263.333 301.833,263.667 302.5,264C 298.5,265 294.5,266 290.5,267C 291.167,267.333 291.833,267.667 292.5,268C 288.5,269 284.5,270 280.5,271C 281.167,271.333 281.833,271.667 282.5,272C 280.598,272.199 279.098,273.033 278,274.5C 277.667,273.833 277.333,273.167 277,272.5C 275.214,274.099 273.047,274.933 270.5,275C 271.167,275.333 271.833,275.667 272.5,276C 270.5,276.333 268.5,276.667 266.5,277C 267.167,277.333 267.833,277.667 268.5,278C 266.5,278.333 264.5,278.667 262.5,279C 263.167,279.333 263.833,279.667 264.5,280C 263.207,280.49 261.873,280.657 260.5,280.5C 259.539,278.735 259.205,276.735 259.5,274.5C 260.309,273.531 261.309,272.698 262.5,272C 261.833,271.667 261.167,271.333 260.5,271C 262.402,270.801 263.902,269.967 265,268.5C 265.333,269.167 265.667,269.833 266,270.5C 269,268.5 272,266.5 275,264.5C 275.333,265.167 275.667,265.833 276,266.5C 277.098,265.033 278.598,264.199 280.5,264C 279.833,263.667 279.167,263.333 278.5,263C 285.833,260.667 293.167,258.333 300.5,256C 299.833,255.667 299.167,255.333 298.5,255C 303.925,254.035 308.758,251.869 313,248.5C 313.333,249.167 313.667,249.833 314,250.5C 315.098,249.033 316.598,248.199 318.5,248C 317.833,247.667 317.167,247.333 316.5,247C 323.833,244.667 331.167,242.333 338.5,240C 337.833,239.667 337.167,239.333 336.5,239C 341.925,238.035 346.758,235.869 351,232.5C 351.333,233.167 351.667,233.833 352,234.5C 353.098,233.033 354.598,232.199 356.5,232C 355.833,231.667 355.167,231.333 354.5,231C 361.833,228.667 369.167,226.333 376.5,224C 375.833,223.667 375.167,223.333 374.5,223C 379.925,222.035 384.758,219.869 389,216.5C 389.333,217.167 389.667,217.833 390,218.5C 391.098,217.033 392.598,216.199 394.5,216C 393.833,215.667 393.167,215.333 392.5,215C 395.208,214.764 397.708,213.931 400,212.5C 401.762,212.944 401.595,213.444 399.5,214C 400.756,214.417 401.423,215.25 401.5,216.5 Z"/></g>
<g><path style="opacity:0.992" fill="#d933d6" d="M 389.5,228.5 C 388.011,230.805 386.511,233.138 385,235.5C 384.444,237.885 384.61,240.218 385.5,242.5C 384.417,242.461 383.417,242.127 382.5,241.5C 378.982,243.286 375.316,244.786 371.5,246C 372.167,246.333 372.833,246.667 373.5,247C 370.833,247.333 368.167,247.667 365.5,248C 366.167,248.333 366.833,248.667 367.5,249C 365.5,249.333 363.5,249.667 361.5,250C 362.167,250.333 362.833,250.667 363.5,251C 361.167,251.333 358.833,251.667 356.5,252C 356.833,252.333 357.167,252.667 357.5,253C 349.5,256 341.5,259 333.5,262C 334.167,262.333 334.833,262.667 335.5,263C 332.833,263.333 330.167,263.667 327.5,264C 328.167,264.333 328.833,264.667 329.5,265C 327.5,265.333 325.5,265.667 323.5,266C 324.167,266.333 324.833,266.667 325.5,267C 323.167,267.333 320.833,267.667 318.5,268C 318.833,268.333 319.167,268.667 319.5,269C 311.762,271.373 304.428,274.539 297.5,278.5C 295.234,279.314 292.9,279.814 290.5,280C 290.833,280.333 291.167,280.667 291.5,281C 289.5,281.333 287.5,281.667 285.5,282C 286.167,282.333 286.833,282.667 287.5,283C 285.167,283.333 282.833,283.667 280.5,284C 280.833,284.333 281.167,284.667 281.5,285C 274.611,286.788 268.277,289.621 262.5,293.5C 261.298,289.286 260.631,284.952 260.5,280.5C 261.873,280.657 263.207,280.49 264.5,280C 263.833,279.667 263.167,279.333 262.5,279C 264.5,278.667 266.5,278.333 268.5,278C 267.833,277.667 267.167,277.333 266.5,277C 268.5,276.667 270.5,276.333 272.5,276C 271.833,275.667 271.167,275.333 270.5,275C 273.047,274.933 275.214,274.099 277,272.5C 277.333,273.167 277.667,273.833 278,274.5C 279.098,273.033 280.598,272.199 282.5,272C 281.833,271.667 281.167,271.333 280.5,271C 284.5,270 288.5,269 292.5,268C 291.833,267.667 291.167,267.333 290.5,267C 294.5,266 298.5,265 302.5,264C 301.833,263.667 301.167,263.333 300.5,263C 302.402,262.801 303.902,261.967 305,260.5C 305.333,261.167 305.667,261.833 306,262.5C 310.242,259.131 315.075,256.965 320.5,256C 319.833,255.667 319.167,255.333 318.5,255C 325.833,252.667 333.167,250.333 340.5,248C 339.833,247.667 339.167,247.333 338.5,247C 341.833,246 345.167,245 348.5,244C 347.833,243.667 347.167,243.333 346.5,243C 349.047,242.933 351.214,242.099 353,240.5C 353.333,241.167 353.667,241.833 354,242.5C 355.098,241.033 356.598,240.199 358.5,240C 357.833,239.667 357.167,239.333 356.5,239C 363.833,236.667 371.167,234.333 378.5,232C 377.833,231.667 377.167,231.333 376.5,231C 378.402,230.801 379.902,229.967 381,228.5C 381.333,229.167 381.667,229.833 382,230.5C 384.696,229.238 386.696,227.905 388,226.5C 389.03,226.836 389.53,227.503 389.5,228.5 Z"/></g>
<g><path style="opacity:0.99" fill="#de37d1" d="M 385.5,242.5 C 387.488,245.128 389.488,247.795 391.5,250.5C 389.143,250.337 386.81,250.503 384.5,251C 385.167,251.333 385.833,251.667 386.5,252C 382.5,253 378.5,254 374.5,255C 375.167,255.333 375.833,255.667 376.5,256C 373.291,257.403 369.958,258.403 366.5,259C 367.167,259.333 367.833,259.667 368.5,260C 365.953,260.067 363.786,260.901 362,262.5C 361.667,261.833 361.333,261.167 361,260.5C 359.902,261.967 358.402,262.801 356.5,263C 357.167,263.333 357.833,263.667 358.5,264C 354.5,265 350.5,266 346.5,267C 347.167,267.333 347.833,267.667 348.5,268C 343.075,268.965 338.242,271.131 334,274.5C 333.667,273.833 333.333,273.167 333,272.5C 328.997,275.584 324.497,277.751 319.5,279C 320.056,279.383 320.389,279.883 320.5,280.5C 313.928,281.536 308.428,284.536 304,289.5C 297.95,296.268 293.45,303.934 290.5,312.5C 289.778,312.082 289.278,311.416 289,310.5C 288.667,312.167 288.333,313.833 288,315.5C 287.667,314.5 287.333,313.5 287,312.5C 285.214,314.099 283.047,314.933 280.5,315C 281.167,315.333 281.833,315.667 282.5,316C 278.5,317 274.5,318 270.5,319C 271.167,319.333 271.833,319.667 272.5,320C 270.598,320.199 269.098,321.033 268,322.5C 267.658,320.381 266.825,320.047 265.5,321.5C 264.602,312.168 263.602,302.835 262.5,293.5C 268.277,289.621 274.611,286.788 281.5,285C 281.167,284.667 280.833,284.333 280.5,284C 282.833,283.667 285.167,283.333 287.5,283C 286.833,282.667 286.167,282.333 285.5,282C 287.5,281.667 289.5,281.333 291.5,281C 291.167,280.667 290.833,280.333 290.5,280C 292.9,279.814 295.234,279.314 297.5,278.5C 304.428,274.539 311.762,271.373 319.5,269C 319.167,268.667 318.833,268.333 318.5,268C 320.833,267.667 323.167,267.333 325.5,267C 324.833,266.667 324.167,266.333 323.5,266C 325.5,265.667 327.5,265.333 329.5,265C 328.833,264.667 328.167,264.333 327.5,264C 330.167,263.667 332.833,263.333 335.5,263C 334.833,262.667 334.167,262.333 333.5,262C 341.5,259 349.5,256 357.5,253C 357.167,252.667 356.833,252.333 356.5,252C 358.833,251.667 361.167,251.333 363.5,251C 362.833,250.667 362.167,250.333 361.5,250C 363.5,249.667 365.5,249.333 367.5,249C 366.833,248.667 366.167,248.333 365.5,248C 368.167,247.667 370.833,247.333 373.5,247C 372.833,246.667 372.167,246.333 371.5,246C 375.316,244.786 378.982,243.286 382.5,241.5C 383.417,242.127 384.417,242.461 385.5,242.5 Z"/></g>
<g><path style="opacity:0.988" fill="#e13ad0" d="M 391.5,250.5 C 394.5,252.833 397.167,255.5 399.5,258.5C 398.331,258.272 396.997,258.772 395.5,260C 396.167,260.333 396.833,260.667 397.5,261C 389.5,264 381.5,267 373.5,270C 374.167,270.333 374.833,270.667 375.5,271C 372.833,271.333 370.167,271.667 367.5,272C 368.167,272.333 368.833,272.667 369.5,273C 367.5,273.333 365.5,273.667 363.5,274C 364.167,274.333 364.833,274.667 365.5,275C 362.833,275.333 360.167,275.667 357.5,276C 358.167,276.333 358.833,276.667 359.5,277C 351.691,280.302 344.024,282.802 336.5,284.5C 331.591,281.606 326.258,280.273 320.5,280.5C 320.389,279.883 320.056,279.383 319.5,279C 324.497,277.751 328.997,275.584 333,272.5C 333.333,273.167 333.667,273.833 334,274.5C 338.242,271.131 343.075,268.965 348.5,268C 347.833,267.667 347.167,267.333 346.5,267C 350.5,266 354.5,265 358.5,264C 357.833,263.667 357.167,263.333 356.5,263C 358.402,262.801 359.902,261.967 361,260.5C 361.333,261.167 361.667,261.833 362,262.5C 363.786,260.901 365.953,260.067 368.5,260C 367.833,259.667 367.167,259.333 366.5,259C 369.958,258.403 373.291,257.403 376.5,256C 375.833,255.667 375.167,255.333 374.5,255C 378.5,254 382.5,253 386.5,252C 385.833,251.667 385.167,251.333 384.5,251C 386.81,250.503 389.143,250.337 391.5,250.5 Z"/></g>
<g><path style="opacity:0.985" fill="#e53ecc" d="M 399.5,258.5 C 403.167,261.5 406.5,264.833 409.5,268.5C 408.411,270.117 406.744,270.95 404.5,271C 405.167,271.333 405.833,271.667 406.5,272C 401.075,272.965 396.242,275.131 392,278.5C 391.667,277.833 391.333,277.167 391,276.5C 389.902,277.967 388.402,278.801 386.5,279C 387.167,279.333 387.833,279.667 388.5,280C 381.167,282.333 373.833,284.667 366.5,287C 367.167,287.333 367.833,287.667 368.5,288C 363.075,288.965 358.242,291.131 354,294.5C 353.667,293.833 353.333,293.167 353,292.5C 352.5,293.667 351.667,294.5 350.5,295C 351.167,295.333 351.833,295.667 352.5,296C 351.584,296.278 350.918,296.778 350.5,297.5C 345.833,293.167 341.167,288.833 336.5,284.5C 344.024,282.802 351.691,280.302 359.5,277C 358.833,276.667 358.167,276.333 357.5,276C 360.167,275.667 362.833,275.333 365.5,275C 364.833,274.667 364.167,274.333 363.5,274C 365.5,273.667 367.5,273.333 369.5,273C 368.833,272.667 368.167,272.333 367.5,272C 370.167,271.667 372.833,271.333 375.5,271C 374.833,270.667 374.167,270.333 373.5,270C 381.5,267 389.5,264 397.5,261C 396.833,260.667 396.167,260.333 395.5,260C 396.997,258.772 398.331,258.272 399.5,258.5 Z"/></g>
<g><path style="opacity:0.987" fill="#ea43c8" d="M 409.5,268.5 C 414.293,272.634 417.96,277.634 420.5,283.5C 419.069,283.881 418.236,284.881 418,286.5C 417.667,285.833 417.333,285.167 417,284.5C 415.902,285.967 414.402,286.801 412.5,287C 413.167,287.333 413.833,287.667 414.5,288C 410.5,289 406.5,290 402.5,291C 403.167,291.333 403.833,291.667 404.5,292C 399.075,292.965 394.242,295.131 390,298.5C 389.667,297.833 389.333,297.167 389,296.5C 387.902,297.967 386.402,298.801 384.5,299C 385.167,299.333 385.833,299.667 386.5,300C 379.167,302.333 371.833,304.667 364.5,307C 365.167,307.333 365.833,307.667 366.5,308C 364.046,308.59 362.379,309.424 361.5,310.5C 357.487,306.485 353.821,302.152 350.5,297.5C 350.918,296.778 351.584,296.278 352.5,296C 351.833,295.667 351.167,295.333 350.5,295C 351.667,294.5 352.5,293.667 353,292.5C 353.333,293.167 353.667,293.833 354,294.5C 358.242,291.131 363.075,288.965 368.5,288C 367.833,287.667 367.167,287.333 366.5,287C 373.833,284.667 381.167,282.333 388.5,280C 387.833,279.667 387.167,279.333 386.5,279C 388.402,278.801 389.902,277.967 391,276.5C 391.333,277.167 391.667,277.833 392,278.5C 396.242,275.131 401.075,272.965 406.5,272C 405.833,271.667 405.167,271.333 404.5,271C 406.744,270.95 408.411,270.117 409.5,268.5 Z"/></g>
<g><path style="opacity:0.98" fill="#f04ac2" d="M 420.5,283.5 C 427.291,308.201 417.791,322.201 392,325.5C 379.324,325.412 369.158,320.412 361.5,310.5C 362.379,309.424 364.046,308.59 366.5,308C 365.833,307.667 365.167,307.333 364.5,307C 371.833,304.667 379.167,302.333 386.5,300C 385.833,299.667 385.167,299.333 384.5,299C 386.402,298.801 387.902,297.967 389,296.5C 389.333,297.167 389.667,297.833 390,298.5C 394.242,295.131 399.075,292.965 404.5,292C 403.833,291.667 403.167,291.333 402.5,291C 406.5,290 410.5,289 414.5,288C 413.833,287.667 413.167,287.333 412.5,287C 414.402,286.801 415.902,285.967 417,284.5C 417.333,285.167 417.667,285.833 418,286.5C 418.236,284.881 419.069,283.881 420.5,283.5 Z"/></g>
<g><path style="opacity:0.952" fill="#ec45c7" d="M 290.5,312.5 C 286.714,326.225 284.381,340.225 283.5,354.5C 282.448,354.351 281.448,354.517 280.5,355C 280.833,355.333 281.167,355.667 281.5,356C 276.701,358.49 272.201,360.657 268,362.5C 267.79,360.942 267.29,359.609 266.5,358.5C 266.728,346.141 266.395,333.807 265.5,321.5C 266.825,320.047 267.658,320.381 268,322.5C 269.098,321.033 270.598,320.199 272.5,320C 271.833,319.667 271.167,319.333 270.5,319C 274.5,318 278.5,317 282.5,316C 281.833,315.667 281.167,315.333 280.5,315C 283.047,314.933 285.214,314.099 287,312.5C 287.333,313.5 287.667,314.5 288,315.5C 288.333,313.833 288.667,312.167 289,310.5C 289.278,311.416 289.778,312.082 290.5,312.5 Z"/></g>
<g><path style="opacity:0.914" fill="#f64ebf" d="M 283.5,354.5 C 282.253,367.527 280.753,380.527 279,393.5C 275.269,399.08 272.269,398.747 270,392.5C 268.705,381.161 267.539,369.828 266.5,358.5C 267.29,359.609 267.79,360.942 268,362.5C 272.201,360.657 276.701,358.49 281.5,356C 281.167,355.667 280.833,355.333 280.5,355C 281.448,354.517 282.448,354.351 283.5,354.5 Z"/></g>
</svg>
